<?xml version="1.0" encoding="UTF-8" standalone="no"?>
<svg
   version="1.1"
   id="Layer_1"
   x="0px"
   y="0px"
   viewBox="0 0 160.00033 160.00033"
   xml:space="preserve"
   sodipodi:docname="floating_normal_active.svg"
   inkscape:version="1.2.2 (b0a8486541, 2022-12-01)"
   width="160"
   height="160"
   xmlns:inkscape="http://www.inkscape.org/namespaces/inkscape"
   xmlns:sodipodi="http://sodipodi.sourceforge.net/DTD/sodipodi-0.dtd"
   xmlns="http://www.w3.org/2000/svg"
   xmlns:svg="http://www.w3.org/2000/svg"><defs
     id="defs11" /><sodipodi:namedview
     id="namedview9"
     pagecolor="#ffffff"
     bordercolor="#666666"
     borderopacity="1.0"
     inkscape:showpageshadow="2"
     inkscape:pageopacity="0.0"
     inkscape:pagecheckerboard="0"
     inkscape:deskcolor="#d1d1d1"
     showgrid="false"
     inkscape:zoom="6.966146"
     inkscape:cx="33.519252"
     inkscape:cy="84.479998"
     inkscape:window-width="2519"
     inkscape:window-height="1400"
     inkscape:window-x="41"
     inkscape:window-y="40"
     inkscape:window-maximized="1"
     inkscape:current-layer="g6"
     showguides="true"><sodipodi:guide
       position="80.101846,134.16102"
       orientation="1,0"
       id="guide933"
       inkscape:locked="false" /><sodipodi:guide
       position="80.101846,79.898484"
       orientation="0,-1"
       id="guide935"
       inkscape:locked="false" /></sodipodi:namedview><style
     type="text/css"
     id="style2">.st0{fill-rule:evenodd;clip-rule:evenodd;}</style><g
     id="g6"><path
       class="st0"
       d="m 46.631476,103.20014 c -2.421613,5.87918 -5.69442,11.46143 -6.631393,17.3406 l 3.38498,-0.29033 C 48.729767,104.70458 53.5466,94.252713 63.991868,81.181277 71.830767,71.389251 80.336106,63.596539 91.243257,57.40724 c 5.806598,-3.299201 13.242993,-6.908526 19.933763,-7.819105 1.82776,-0.25074 3.68191,-0.323322 5.58225,-0.158362 C 96.040297,54.174024 79.636675,65.160361 66.532252,81.629968 61.180949,88.34714 56.529077,95.809936 52.253313,103.67523 l 7.878491,1.43845 -3.279406,-1.62981 11.731956,-1.86734 C 64.22941,100.0791 59.927253,100.59378 58.548187,98.937577 70.62326,98.389907 80.547255,95.783542 87.515165,90.722564 84.921995,90.359652 81.932918,90.03633 80.375697,89.290711 92.048266,85.344868 98.798426,78.251587 107.36315,71.956712 96.231649,74.292547 85.93155,73.90984 82.949072,71.791753 102.59251,73.25 115.28123,67.819516 119.62957,54.127834 c 0.37612,-1.478041 0.48168,-2.969279 0.24415,-4.473715 -1.52423,-9.785428 -18.84503,-13.091227 -24.480067,-5.067571 -1.12833,1.60341 -2.71854,3.074854 -4.031624,4.935603 L 96.726526,39.45959 C 82.289232,44.335808 81.10152,49.713504 73.632131,65.912578 c 0.593856,-4.929006 1.959725,-9.396122 3.734694,-13.6125 -18.040027,6.961313 -24.05117,24.486664 -25.014536,39.392454 -0.521274,-5.199543 0.442093,-11.731959 2.302842,-19.069381 -5.265524,5.278721 -8.848455,11.474619 -7.568366,20.316478 l -2.408416,-1.075539 1.266893,4.744256 -3.602727,-1.70899 z"
       id="path4"
       style="fill:#af9700;fill-opacity:1;stroke-width:0.65984" /></g></svg>
